rotated_Sprint_08100001_forces_filt12Hz.mot
version=1
nRows=38
nColumns=19
inDegrees=yes
endheader
time	R_ground_force_vx	R_ground_force_vy	R_ground_force_vz	R_ground_force_px	R_ground_force_py	R_ground_force_pz	R_ground_torque_x	R_ground_torque_y	R_ground_torque_z	L_ground_force_vx	L_ground_force_vy	L_ground_force_vz	L_ground_force_px	L_ground_force_py	L_ground_force_pz	L_ground_torque_x	L_ground_torque_y	L_ground_torque_z	
0.000000	  0.000000	  0.000000	  0.000000	  0.426822	  0.000000	 -0.731509	  0.000000	  0.000000	  0.000000	-71.198568	 51.056275	-54.278023	  1.156442	  0.000000	 -0.521194	  0.000000	-41.495276	  0.000000
0.000500	  0.000000	  0.000000	  0.000000	  0.429157	 -0.000000	 -0.732183	  0.000000	  0.000000	  0.000000	-71.910936	 64.313134	-50.497182	  1.133381	  0.000000	 -0.510609	  0.000000	-36.892701	  0.000000
0.001000	  0.000000	  0.000000	  0.000000	  0.431493	 -0.000000	 -0.732858	  0.000000	  0.000000	  0.000000	-72.856012	 78.536279	-46.623343	  1.115705	  0.000000	 -0.502219	  0.000000	-32.862662	  0.000000
0.001500	  0.000000	  0.000000	  0.000000	  0.433828	 -0.000000	 -0.733532	  0.000000	  0.000000	  0.000000	-74.047349	 93.756763	-42.659546	  1.101732	  0.000000	 -0.495347	  0.000000	-29.233691	  0.000000
0.002000	  0.000000	  0.000000	  0.000000	  0.436163	 -0.000000	 -0.734207	  0.000000	  0.000000	  0.000000	-75.497393	110.004404	-38.608351	  1.090410	  0.000000	 -0.489566	  0.000000	-25.900567	  0.000000
0.002500	  0.000000	  0.000000	  0.000000	  0.438499	  0.000000	 -0.734881	  0.000000	  0.000000	  0.000000	-77.217255	127.307549	-34.471722	  1.081047	  0.000000	 -0.484597	  0.000000	-22.795902	  0.000000
0.003000	  0.000000	  0.000000	  0.000000	  0.440834	  0.000000	 -0.735555	  0.000000	  0.000000	  0.000000	-79.216508	145.692821	-30.250895	  1.073168	  0.000000	 -0.480246	  0.000000	-19.875134	  0.000000
0.003500	  0.000000	  0.000000	  0.000000	  0.443169	  0.000000	 -0.736230	  0.000000	  0.000000	  0.000000	-81.503030	165.184847	-25.946219	  1.066436	  0.000000	 -0.476376	  0.000000	-17.108075	  0.000000
0.004000	  0.000000	  0.000000	  0.000000	  0.445504	  0.000000	 -0.736904	  0.000000	  0.000000	  0.000000	-84.082868	185.805971	-21.556995	  1.060605	  0.000000	 -0.472888	  0.000000	-14.473885	  0.000000
0.004500	  0.000000	  0.000000	  0.000000	  0.447840	  0.000000	 -0.737579	  0.000000	  0.000000	  0.000000	-86.960148	207.575953	-17.081320	  1.055493	  0.000000	 -0.469706	  0.000000	-11.957950	  0.000000
0.005000	  0.000000	  0.000000	  0.000000	  0.450175	  0.000000	 -0.738253	  0.000000	  0.000000	  0.000000	-90.136979	230.511642	-12.515988	  1.050960	  0.000000	 -0.466773	  0.000000	 -9.549871	  0.000000
0.005500	  0.000000	  0.000000	  0.000000	  0.452496	  0.000000	 -0.738773	  0.000000	  0.000000	  0.000000	-93.613366	254.626637	 -7.856435	  1.046897	  0.000000	 -0.464044	  0.000000	 -7.242142	  0.000000
0.006000	  0.000000	  0.000000	  0.000000	  0.454817	  0.000000	 -0.739293	  0.000000	  0.000000	  0.000000	-97.387112	279.930935	 -3.096745	  1.043219	  0.000000	 -0.461485	  0.000000	 -5.029252	  0.000000
0.006500	  0.000000	  0.000000	  0.000000	  0.457139	  0.000000	 -0.739814	  0.000000	  0.000000	  0.000000	-101.453711	306.430546	  1.770295	  1.039859	  0.000000	 -0.459068	  0.000000	 -2.907074	  0.000000
0.007000	  0.000000	  0.000000	  0.000000	  0.459460	  0.000000	 -0.740334	  0.000000	  0.000000	  0.000000	-105.806226	334.127104	  6.753116	  1.036761	  0.000000	 -0.456770	  0.000000	 -0.872441	  0.000000
0.007500	  0.000000	  0.000000	  0.000000	  0.461781	  0.000000	 -0.740854	  0.000000	  0.000000	  0.000000	-110.435174	363.017452	 11.861258	  1.033882	  0.000000	 -0.454573	  0.000000	  1.077169	  0.000000
0.008000	  0.000000	  0.000000	  0.000000	  0.464102	  0.000000	 -0.741374	  0.000000	  0.000000	  0.000000	-115.328399	393.093206	 17.105233	  1.031185	  0.000000	 -0.452462	  0.000000	  2.943856	  0.000000
0.008500	  0.000000	  0.000000	  0.000000	  0.466423	  0.000000	 -0.741894	  0.000000	  0.000000	  0.000000	-120.470982	424.340312	 22.496354	  1.028642	  0.000000	 -0.450424	  0.000000	  4.729463	  0.000000
0.009000	  0.000000	  0.000000	  0.000000	  0.468745	  0.000000	 -0.742415	  0.000000	  0.000000	  0.000000	-125.845196	456.738570	 28.046536	  1.026228	  0.000000	 -0.448450	  0.000000	  6.435677	  0.000000
0.009500	  0.000000	  0.000000	  0.000000	  0.471066	  0.000000	 -0.742935	  0.000000	  0.000000	  0.000000	-131.430532	490.261148	 33.768061	  1.023924	  0.000000	 -0.446529	  0.000000	  8.064069	  0.000000
0.010000	  0.000000	  0.000000	  0.000000	  0.473387	  0.000000	 -0.743455	  0.000000	  0.000000	  0.000000	-137.203785	524.874078	 39.673338	  1.021713	  0.000000	 -0.444656	  0.000000	  9.616086	  0.000000
0.010500	  0.000000	  0.000000	  0.000000	  0.475659	  0.000000	 -0.743837	  0.000000	  0.000000	  0.000000	-143.139184	560.536073	 45.774638	  1.019582	  0.000000	 -0.442824	  0.000000	 11.093000	  0.000000
0.011000	  0.000000	  0.000000	  0.000000	  0.477930	  0.000000	 -0.744220	  0.000000	  0.000000	  0.000000	-149.208557	597.199342	 52.083783	  1.017518	  0.000000	 -0.441027	  0.000000	 12.495850	  0.000000
0.011500	  0.000000	  0.000000	  0.000000	  0.480202	  0.000000	 -0.744602	  0.000000	  0.000000	  0.000000	-155.381502	634.811240	 58.611784	  1.015511	  0.000000	 -0.439262	  0.000000	 13.825374	  0.000000
0.012000	  0.000000	  0.000000	  0.000000	  0.482474	  0.000000	 -0.744985	  0.000000	  0.000000	  0.000000	-161.625586	673.315736	 65.368409	  1.013553	  0.000000	 -0.437523	  0.000000	 15.081966	  0.000000
0.012500	  0.000000	  0.000000	  0.000000	  0.484745	  0.000000	 -0.745367	  0.000000	  0.000000	  0.000000	-167.906577	712.654427	 72.361698	  1.011636	  0.000000	 -0.435810	  0.000000	 16.265628	  0.000000
0.013000	  0.000000	  0.000000	  0.000000	  0.487017	  0.000000	 -0.745749	  0.000000	  0.000000	  0.000000	-174.188739	752.767560	 79.597462	  1.009755	  0.000000	 -0.434120	  0.000000	 17.375921	  0.000000
0.013500	  0.000000	  0.000000	  0.000000	  0.489289	  0.000000	 -0.746132	  0.000000	  0.000000	  0.000000	-180.435156	793.595229	 87.078818	  1.007905	  0.000000	 -0.432451	  0.000000	 18.411889	  0.000000
0.014000	  0.000000	  0.000000	  0.000000	  0.491561	  0.000000	 -0.746514	  0.000000	  0.000000	  0.000000	-186.608105	835.078614	 94.805759	  1.006082	  0.000000	 -0.430803	  0.000000	 19.372000	  0.000000
0.014500	  0.000000	  0.000000	  0.000000	  0.493832	  0.000000	 -0.746897	  0.000000	  0.000000	  0.000000	-192.669447	877.161123	102.774801	  1.004283	  0.000000	 -0.429177	  0.000000	 20.254084	  0.000000
0.015000	  0.000000	  0.000000	  0.000000	  0.496104	  0.000000	 -0.747279	  0.000000	  0.000000	  0.000000	-198.581070	919.789317	110.978716	  1.002506	  0.000000	 -0.427572	  0.000000	 21.055317	  0.000000
0.015500	  0.000000	  0.000000	  0.000000	  0.498311	  0.000000	 -0.747536	  0.000000	  0.000000	  0.000000	-204.305389	962.913515	119.406385	  1.000748	  0.000000	 -0.425988	  0.000000	 21.772216	  0.000000
0.016000	  0.000000	  0.000000	  0.000000	  0.500519	  0.000000	 -0.747793	  0.000000	  0.000000	  0.000000	-209.805933	1006.488122	128.042806	  0.999010	  0.000000	 -0.424428	  0.000000	 22.400636	  0.000000
0.016500	  0.000000	  0.000000	  0.000000	  0.502726	  0.000000	 -0.748049	  0.000000	  0.000000	  0.000000	-215.048021	1050.471729	136.869284	  0.997290	  0.000000	 -0.422893	  0.000000	 22.935742	  0.000000
0.017000	  0.000000	  0.000000	  0.000000	  0.504934	  0.000000	 -0.748306	  0.000000	  0.000000	  0.000000	-219.999525	1094.827131	145.863773	  0.995588	  0.000000	 -0.421382	  0.000000	 23.371955	  0.000000
0.017500	  0.000000	  0.000000	  0.000000	  0.507141	  0.000000	 -0.748563	  0.000000	  0.000000	  0.000000	-224.631698	1139.521331	155.001336	  0.993906	  0.000000	 -0.419897	  0.000000	 23.702879	  0.000000
0.018000	  0.000000	  0.000000	  0.000000	  0.509348	  0.000000	 -0.748820	  0.000000	  0.000000	  0.000000	-228.920028	1184.525576	164.254653	  0.992244	  0.000000	 -0.418440	  0.000000	 23.921269	  0.000000
0.018500	  0.000000	  0.000000	  0.000000	  0.511556	  0.000000	 -0.749077	  0.000000	  0.000000	  0.000000	-232.845074	1229.815398	173.594515	  0.990603	  0.000000	 -0.417009	  0.000000	 24.019050	  0.000000
